<?xml version="1.0" encoding="UTF-8" standalone="no"?>
<!DOCTYPE svg PUBLIC "-//W3C//DTD SVG 1.1//EN" "http://www.w3.org/Graphics/SVG/1.1/DTD/svg11.dtd">
<svg width="100%" height="100%" viewBox="0 0 1000 1000" version="1.1" xmlns="http://www.w3.org/2000/svg" xmlns:xlink="http://www.w3.org/1999/xlink" xml:space="preserve" xmlns:serif="http://www.serif.com/" style="fill-rule:evenodd;clip-rule:evenodd;stroke-linejoin:round;stroke-miterlimit:1.41421;">
    <path d="M687.3,299.2C683.5,295.6 677.6,295.8 674,299.6C590.9,387.8 508,475.7 424.8,564C421.2,567.8 415.4,567.9 411.7,564.2L323.3,475.8C319.6,472.1 313.7,472.1 310,475.8L256.5,529.3C252.8,533 252.8,538.9 256.5,542.6L414.6,700.7C418.3,704.4 424.2,704.3 427.7,700.5C532.8,589 638.2,477.3 743.8,365.3C747.4,361.5 747.2,355.6 743.4,352C724.6,334.3 706,316.8 687.3,299.2Z" style="fill:url(#_Linear1);fill-rule:nonzero;"/>
    <path d="M500,62.5C258.4,62.5 62.5,258.4 62.5,500C62.5,741.6 258.4,937.5 500,937.5C741.6,937.5 937.5,741.6 937.5,500C937.5,258.4 741.6,62.5 500,62.5ZM500,868.6C296.5,868.6 131.4,703.5 131.4,500C131.4,296.5 296.5,131.4 500,131.4C703.5,131.4 868.6,296.5 868.6,500C868.6,703.5 703.5,868.6 500,868.6Z" style="fill:rgb(129,129,129);fill-rule:nonzero;"/>
    <defs>
        <linearGradient id="_Linear1" x1="0" y1="0" x2="1" y2="0" gradientUnits="userSpaceOnUse" gradientTransform="matrix(321.38,-345.414,345.414,321.38,425,703.414)"><stop offset="0" style="stop-color:rgb(51,204,0);stop-opacity:1"/><stop offset="1" style="stop-color:rgb(153,255,102);stop-opacity:1"/></linearGradient>
    </defs>
</svg>
