<?xml version="1.0" encoding="UTF-8" standalone="no"?>
<!DOCTYPE svg PUBLIC "-//W3C//DTD SVG 1.1//EN" "http://www.w3.org/Graphics/SVG/1.1/DTD/svg11.dtd">
<svg width="100%" height="100%" viewBox="0 0 1000 1000" version="1.1" xmlns="http://www.w3.org/2000/svg" xmlns:xlink="http://www.w3.org/1999/xlink" xml:space="preserve" xmlns:serif="http://www.serif.com/" style="fill-rule:evenodd;clip-rule:evenodd;stroke-linejoin:round;stroke-miterlimit:1.41421;">
    <path d="M191.7,419.1C159.7,419 127.8,419 95.8,419.1C71.9,419.1 62.5,428.5 62.5,452.3L62.5,872.9C62.5,894.4 72.9,904.9 94.3,905C126.9,905.2 159.6,905.1 192.2,905C214.2,904.9 224.5,894.5 224.5,872.4C224.6,732.2 224.6,592 224.5,451.8C224.6,428.4 215.2,419.2 191.7,419.1ZM831.8,390.6L563.1,390.6C563.3,388.5 563.5,386.9 563.9,385.4C574.3,335.2 582.8,284.7 583,233.2C583.2,200.4 580.9,168 566.7,137.8C557.9,118.8 545.6,102.9 524,97.3C501.7,91.5 485.2,100.1 481.6,119.6C479.1,133.7 476.6,147.7 475,161.9C471.7,193.6 463.3,223.1 441.1,247.3C428.4,261.4 417,276.8 403.8,290.4C372.3,323.1 347.4,360.1 330,402.1C326.5,410.4 322.2,418.2 317.7,426C310.1,439.3 298.2,445.4 283.2,446.3C267.4,447.2 259.4,452.8 254.8,468C252.7,475.3 252,483.1 252,490.7C251.8,605 251.9,719.3 251.9,833.6C251.9,839.5 252.2,845.5 253.1,851.5C255.9,869.1 266.8,878.2 284.5,878.3C291.5,878.4 298.6,878.5 305.6,878.9C332.8,880.2 359.7,883.6 386.4,890.1C413.9,896.8 441.1,905.5 469.9,905.5L692.7,905.5C694.4,905.5 696,905.5 697.7,905.4C748.8,902.8 789.7,861.1 791,809.6C818.3,790.5 836.4,758.8 836.4,722.9L836.4,721C836.4,718.1 836.2,715.2 836,712.3C839.5,709.7 842.8,707.1 845.9,704.2C866.7,684.9 879.7,657.4 879.7,626.7L879.7,624.8C879.7,614.3 878.1,604.3 875.2,594.7C911.8,578.1 937.4,541.3 937.4,498.5L937.4,496.6C937.5,437.9 890.2,390.6 831.8,390.6Z" style="fill:rgb(129,129,129);fill-rule:nonzero;"/>
</svg>
