<?xml version="1.0" encoding="UTF-8" standalone="no"?>
<!DOCTYPE svg PUBLIC "-//W3C//DTD SVG 1.1//EN" "http://www.w3.org/Graphics/SVG/1.1/DTD/svg11.dtd">
<svg width="100%" height="100%" viewBox="0 0 1000 1000" version="1.1" xmlns="http://www.w3.org/2000/svg" xmlns:xlink="http://www.w3.org/1999/xlink" xml:space="preserve" xmlns:serif="http://www.serif.com/" style="fill-rule:evenodd;clip-rule:evenodd;stroke-linejoin:round;stroke-miterlimit:1.41421;">
    <path d="M735.9,335.6L735.9,330.6C735.9,325.7 732,321.8 727.1,321.8L237.7,321.8C232.8,321.8 228.9,325.8 228.9,330.6L228.9,374.9C228.9,379.8 232.8,383.7 237.7,383.7L654.9,383.7C678.5,363.1 705.9,346.7 735.9,335.6ZM603.9,444L237.5,444C232.6,444 228.7,447.9 228.7,452.8L228.7,496.7C228.7,501.6 232.7,505.5 237.5,505.5L576.5,505.5C583,483.7 592.3,463 603.9,444ZM237.6,570.8C232.7,570.8 228.8,574.7 228.8,579.6L228.8,622.1C228.8,627 232.8,630.9 237.6,630.9L570.8,630.9C567.5,614.4 565.8,597.2 565.8,579.6C565.8,576.6 565.8,573.6 566,570.7L237.6,570.8ZM627,747.4L122.5,747.4C110.3,747.4 100.4,737.5 100.4,725.3L100.4,227.5C100.4,215.3 110.3,205.4 122.5,205.4L707.7,205.4C719.9,205.4 737.3,211.9 746.6,219.8C765.7,236.2 784.7,252.5 803.7,269C819.2,282.4 834.6,295.8 850,309.2C853.6,312.4 857,316.8 859.7,321.8C874.3,323.7 888.6,326.8 902.3,331L902.3,191.8C902.3,179.6 892.4,169.7 880.2,169.7L84.6,169.7C72.4,169.7 62.5,179.6 62.5,191.8L62.5,761C62.5,773.2 72.4,783.1 84.6,783.1L663.7,783.1C650.3,772.4 638.1,760.4 627,747.4ZM930.4,518.1C923,503.7 919.4,489.3 922.7,473C926.1,456.1 920,442.8 903.8,435.5C887.1,428.1 874.6,416.6 866.5,400.1C858.9,384.7 845.9,378.9 829.5,382.5C811.9,386.4 795.7,384.1 779.7,375.9C764.7,368.2 750.6,370.6 739.4,383.5C728.1,396.5 714.2,404.2 697.4,406.6C678.4,409.4 668.7,420.5 666.6,439.2C664.8,455.2 658.9,469.2 647.1,480.7C633.4,494.1 630.9,509.2 641.2,526.1C649.7,540 652,554.8 648.9,571.1C645.8,587.2 651,600.8 667,607.9C685.2,616 698.4,628.7 707.3,646.5C710.4,652.7 714.8,657.3 720.3,659.9L720.3,819.8C720.3,832 725.4,833.4 731.7,823L774.7,752C781,741.6 791.3,741.6 797.6,752L840.6,823C846.9,833.4 852,832 852,819.8L852,646.4C852,645.8 851.9,645.3 851.8,644.7C858.9,640.9 866.7,638.3 875.1,636.6C895.6,632.5 902,625.5 904.9,604.7C907.2,588.7 913,575 924.4,563.2C940.1,546.9 941.1,538.8 930.4,518.1ZM785.2,621.4C730.5,621 687,576.9 687.1,521.9C687.3,466.1 730.8,422.8 786.7,423C840.6,423.2 885.2,467.4 885.5,521C885.8,576.1 840.1,621.8 785.2,621.4ZM863,522.2C863,564.6 828.6,599 786.2,599C743.8,599 709.4,564.6 709.4,522.2C709.4,479.8 743.8,445.4 786.2,445.4C828.6,445.4 863,479.8 863,522.2Z" style="fill:rgb(129,129,129);fill-rule:nonzero;"/>
</svg>
