<?xml version="1.0" encoding="UTF-8" standalone="no"?>
<!DOCTYPE svg PUBLIC "-//W3C//DTD SVG 1.1//EN" "http://www.w3.org/Graphics/SVG/1.1/DTD/svg11.dtd">
<svg width="100%" height="100%" viewBox="0 0 1000 1000" version="1.1" xmlns="http://www.w3.org/2000/svg" xmlns:xlink="http://www.w3.org/1999/xlink" xml:space="preserve" xmlns:serif="http://www.serif.com/" style="fill-rule:evenodd;clip-rule:evenodd;stroke-linejoin:round;stroke-miterlimit:1.41421;">
    <path d="M513.2,678C511.6,634.9 510.9,592.5 510.2,550.1C509.9,536.7 509.9,535.1 500.3,535.7C490.7,535.1 490.7,536.8 490.4,550.1C489.7,592.5 489,634.9 487.4,678C461.3,600.8 416.6,543.9 342.9,518.4C427.2,643.3 483.8,778.6 484.1,937.5L516.3,937.5C516.7,778.6 573.3,643.2 657.5,518.4C584,543.9 539.2,600.8 513.2,678Z" style="fill:rgb(130,130,130);fill-rule:nonzero;"/>
    <path d="M394.3,475C403.7,495.9 417.1,513.2 435.3,525.8C445.6,532.9 456.7,537.8 469.2,534.1C499,525.3 510.1,491.6 492.3,463.5C481.5,446.5 467.9,433.2 451.2,423.4C425.5,408.4 398.1,399.4 367.6,392.3C372.6,410.6 376.5,426.7 381.5,442.4C385.1,453.5 389.5,464.4 394.3,475ZM497.3,422C483.3,448.1 495.5,471.6 516,483.5C531.9,492.7 546.4,486.4 559.9,476.5C577.8,463.5 590.4,445.6 599.8,424.7C611,399.8 618.5,373.7 624,345.7C596.2,349.3 550.1,368.2 528.7,384.6C515.9,394.6 505.4,407 497.3,422ZM456.6,422.5C470.3,429.7 482.4,423.6 492.3,412C501.9,400.8 504.7,387.8 498.2,373.9C494.5,366 489.8,358.4 484.2,352C459,323.1 425,314.6 389.3,304.4C397.4,340.6 405.8,374.5 428.2,400.9C435.8,410.1 446.2,417.1 456.6,422.5ZM497.7,319.6C492.6,328.4 489.6,337.8 492.2,348.4C498,372 520.2,384.2 540.3,373.4C549,368.8 557.2,362.1 563.8,354.5C587.2,327.7 595.2,293.3 603.6,257.3C578.5,263 556,270.7 534.9,282.6C519.5,291.2 506.9,303.5 497.7,319.6ZM458.1,326.6C469.9,334.5 482.8,330.9 492.8,319.5C502.5,308.4 504.9,295.3 497.2,282.4C491.5,272.9 484.7,263.5 476.5,256.5C455.4,238.5 429.9,231.2 402.7,224.3C408.9,253.4 415.7,280.6 432.1,302.8C439.1,312.3 448.6,320.2 458.1,326.6ZM495,236.3C488.5,249.2 490.3,260.1 498.9,270.5C508.7,282.3 518.8,285.7 531.6,280.5C548.9,273.4 561.3,259.6 568.9,242.1C577.7,222 584.1,200.6 591.7,179.8L588.5,177.2C560.3,184.8 532.1,192.4 509.9,215.1C503.9,221.1 498.9,228.6 495,236.3ZM474.9,222.8C492.7,222.6 503.7,213.3 508.7,193.8C513.1,176.5 512.9,159.1 508.7,141.7C501.8,113.3 489.4,87.9 474.1,62.5C457.7,89.3 444.5,116.3 438.4,146.8C435.2,162.7 435.3,178.8 439.7,194.7C445.2,214.3 456.1,223 474.9,222.8Z" style="fill:url(#_Linear1);fill-rule:nonzero;"/>
    <defs>
        <linearGradient id="_Linear1" x1="0" y1="0" x2="1" y2="0" gradientUnits="userSpaceOnUse" gradientTransform="matrix(2.89547e-14,472.867,-472.867,2.89547e-14,474.051,62.5)"><stop offset="0" style="stop-color:rgb(102,153,51);stop-opacity:1"/><stop offset="1" style="stop-color:rgb(51,102,51);stop-opacity:1"/></linearGradient>
    </defs>
</svg>
