<?xml version="1.0" encoding="UTF-8" standalone="no"?>
<!DOCTYPE svg PUBLIC "-//W3C//DTD SVG 1.1//EN" "http://www.w3.org/Graphics/SVG/1.1/DTD/svg11.dtd">
<svg width="100%" height="100%" viewBox="0 0 1000 1000" version="1.1" xmlns="http://www.w3.org/2000/svg" xmlns:xlink="http://www.w3.org/1999/xlink" xml:space="preserve" xmlns:serif="http://www.serif.com/" style="fill-rule:evenodd;clip-rule:evenodd;stroke-linejoin:round;stroke-miterlimit:1.41421;">
    <path d="M885,115C914,115 937.5,138.5 937.5,167.5L937.5,832.5C937.5,861.5 914,885 885,885L115,885C86,885 62.5,861.5 62.5,832.5L62.5,167.5C62.5,138.5 86,115 115,115L885,115ZM885,832.5L885,255L115,255L115,832.5L885,832.5ZM443.005,707.983L433.948,707.983C418.567,707.983 406.775,706.758 398.572,704.309C390.369,701.859 383.447,697.786 377.808,692.09C372.168,686.393 368.38,679.358 366.443,670.984C364.506,662.61 363.538,649.422 363.538,631.421C363.538,610.457 362.626,596.842 360.803,590.576C358.297,581.461 354.509,574.939 349.439,571.008C344.369,567.077 336.593,564.827 326.111,564.258L326.111,523.242C334.428,522.786 340.694,521.533 344.91,519.482C349.125,517.431 352.771,513.985 355.847,509.143C358.923,504.301 361.031,498.234 362.17,490.942C363.082,485.473 363.538,475.96 363.538,462.402C363.538,440.299 364.563,424.89 366.614,416.174C368.665,407.458 372.367,400.451 377.722,395.154C383.077,389.856 390.881,385.669 401.135,382.593C408.085,380.542 419.023,379.516 433.948,379.516L443.005,379.516L443.005,420.361C430.359,420.361 422.241,421.073 418.652,422.497C415.064,423.922 412.415,426.086 410.706,428.992C408.997,431.897 408.142,436.881 408.142,443.945C408.142,451.123 407.629,464.738 406.604,484.79C406.034,496.069 404.553,505.212 402.161,512.219C399.768,519.226 396.72,525.008 393.018,529.565C389.315,534.123 383.647,538.851 376.013,543.75C382.735,547.624 388.232,552.152 392.505,557.336C396.777,562.52 400.053,568.815 402.332,576.221C404.61,583.626 406.091,593.538 406.775,605.957C407.572,624.87 407.971,636.946 407.971,642.187C407.971,649.707 408.883,654.948 410.706,657.91C412.529,660.872 415.291,663.122 418.994,664.66C422.697,666.199 430.701,666.968 443.005,666.968L443.005,707.983ZM566.052,707.983L556.995,707.983L556.995,666.968C569.185,666.968 577.161,666.199 580.92,664.66C584.68,663.122 587.443,660.901 589.209,657.995C590.975,655.09 591.886,650.163 591.943,643.213C592,636.263 592.485,622.99 593.396,603.393C593.966,591.544 595.504,582.06 598.01,574.939C600.517,567.818 603.849,561.78 608.008,556.824C612.166,551.868 617.493,547.51 623.987,543.75C615.556,538.281 609.404,532.926 605.53,527.685C600.175,520.166 596.529,510.596 594.592,498.974C593.339,490.999 592.428,473.454 591.858,446.338C591.744,437.793 590.975,432.096 589.551,429.248C588.127,426.4 585.563,424.206 581.86,422.668C578.158,421.13 569.869,420.361 556.995,420.361L556.995,379.516L566.052,379.516C581.433,379.516 593.225,380.713 601.428,383.105C609.631,385.498 616.524,389.571 622.107,395.325C627.69,401.078 631.478,408.142 633.472,416.516C635.466,424.89 636.462,438.078 636.462,456.079C636.462,476.929 637.317,490.543 639.026,496.924C641.532,506.038 645.349,512.561 650.476,516.492C655.603,520.422 663.407,522.672 673.889,523.242L673.889,564.258C665.572,564.713 659.306,565.967 655.09,568.017C650.875,570.068 647.258,573.515 644.238,578.357C641.219,583.199 639.083,589.266 637.83,596.557C636.918,602.026 636.462,611.483 636.462,624.927C636.462,647.029 635.466,662.467 633.472,671.24C631.478,680.013 627.804,687.048 622.449,692.346C617.094,697.644 609.233,701.831 598.865,704.907C591.915,706.958 580.977,707.983 566.052,707.983Z" style="fill:rgb(128,128,128);fill-rule:nonzero;"/>
</svg>
