<?xml version="1.0" encoding="UTF-8" standalone="no"?>
<!DOCTYPE svg PUBLIC "-//W3C//DTD SVG 1.1//EN" "http://www.w3.org/Graphics/SVG/1.1/DTD/svg11.dtd">
<svg width="100%" height="100%" viewBox="0 0 1000 1000" version="1.1" xmlns="http://www.w3.org/2000/svg" xmlns:xlink="http://www.w3.org/1999/xlink" xml:space="preserve" xmlns:serif="http://www.serif.com/" style="fill-rule:evenodd;clip-rule:evenodd;stroke-linejoin:round;stroke-miterlimit:1.41421;">
    <path d="M418.1,739.6C386.4,772.5 369,747.9 350.3,729.3C322.5,701.6 294.8,674 267.2,646C248.7,627.2 217.6,611.6 256.1,575.6L245.8,574C238.3,576.4 229.9,577.4 223.1,581.3C194.6,597.6 165.7,613.4 138.8,631.9C107,653.9 97.7,622.4 81.6,609.4C64.5,595.6 80.7,585.3 89,575.8C128.1,531.2 167,486.4 207.5,443.2C215.6,434.5 229.9,429.4 242.2,427.3C262.7,423.7 284.2,421.3 304.8,423.1C340.8,426.3 360.1,407.4 379.4,380.5C454,276.4 543.3,187.7 658.5,128C724.4,93.8 724.1,93.7 774.9,145.5C810.6,181.9 846.1,218.7 883.6,253.4C896.9,265.7 898.3,275.3 892,290.6C852,387.8 790.8,469.7 712.4,538.6C674.8,571.6 633.3,600.1 595.1,632.4C585.5,640.5 578.3,655.4 576.4,668C572.1,697.7 573,728.1 569.3,757.9C568,768.4 561.7,780.5 553.9,787.6C508.6,828.5 462,868 416,908.3C405.1,917.8 393.9,924.9 384.1,910.2C374,895 342.1,889.7 359.7,860.7C378,830.3 396.4,799.9 414.4,769.2C418.1,763 419.9,755.8 422.6,749C421.2,745.8 419.6,742.7 418.1,739.6ZM670.6,262.4C635.3,261.8 604.2,292.4 604.1,327.8C604.1,361.4 634.2,392.4 668.1,393.4C701.6,394.5 735.4,361.1 735.1,327.4C734.9,293.8 704.3,263 670.6,262.4ZM62.4,927.3C80.6,914.5 97.6,903.9 112.9,891.4C121,884.7 128.8,875.4 132,865.6C134.8,857.4 134.1,843.9 128.8,838.4C124.5,833.8 111.3,836.6 102.3,838C97.6,838.7 93.4,843.3 86.9,847.3C80.9,804.9 104.7,780.6 131.5,757.9C134.2,755.5 138.6,754.9 140.8,752.3C150.2,741 158.9,729.3 168,717.6C156.3,714.4 144.6,711.3 125.9,706.2C137.3,695.1 146.5,682 158.9,674.9C195.2,654.2 246.5,661 279.4,688.3C320.8,722.6 333.6,766.3 318.6,815.3C302.7,866.6 268,897.9 218.4,915.2C217.7,913 216.8,911.4 216.7,909.9L214.7,867.4C201.6,873.7 187.5,878.4 176,886.8C160.6,897.9 148.3,913.4 132.8,924.2C106.5,942.4 96.8,941.9 62.4,927.3ZM909.6,244.5C857.4,191.2 808.7,141.6 756.5,88.4C810.7,79.4 864.1,68.9 918,62.2C939,59.6 938.8,78.1 936.1,93.5C927.6,142.8 918.8,192 909.6,244.5Z" style="fill:rgb(129,129,129);fill-rule:nonzero;"/>
</svg>
