<?xml version="1.0" encoding="UTF-8" standalone="no"?>
<!DOCTYPE svg PUBLIC "-//W3C//DTD SVG 1.1//EN" "http://www.w3.org/Graphics/SVG/1.1/DTD/svg11.dtd">
<svg width="100%" height="100%" viewBox="0 0 1000 1000" version="1.1" xmlns="http://www.w3.org/2000/svg" xmlns:xlink="http://www.w3.org/1999/xlink" xml:space="preserve" xmlns:serif="http://www.serif.com/" style="fill-rule:evenodd;clip-rule:evenodd;stroke-linejoin:round;stroke-miterlimit:1.41421;">
    <path d="M577.5,648.6C574,646.6 572.7,644.4 572.8,640.3C573.1,630 572.6,619.6 573.1,609.3C573.2,606.9 575,603.7 577,602.3C583.8,597.8 591.1,593.9 598.2,589.8C612.8,581.4 627.4,573 643.1,563.9C637.4,547.2 631.6,530.9 626.3,514.5C624.4,508.5 621,507.8 615.3,508.4C593.1,510.9 570.9,512.8 548.7,515.1C544.5,515.5 542,514.3 539.5,510.7C533.9,502.3 527.6,494.4 521.4,486.4C519.1,483.5 518.4,481.2 520.2,477.7C523.7,470.8 526.6,463.6 529.7,456.5C536.6,440.9 543.5,425.4 551,408.6C535.6,398 520.4,387.7 505.5,377.2C502,374.8 499.9,375.8 497.1,378.3C479.8,393.5 462.3,408.4 445,423.7C441.9,426.5 439.4,426.6 435.6,425.2C426.1,421.8 416.5,418.8 406.8,416.2C402.4,415 400.4,413 399.4,408.4C394.3,384.8 388.9,361.4 383.3,337L322.5,337C316.9,361.7 311.5,385.3 306.4,408.9C305.5,413.2 303.4,415 299.3,416.1C289.6,418.8 279.9,421.7 270.5,425.2C266.4,426.7 263.8,426.3 260.6,423.4C243.3,408.1 225.9,393.1 208.3,378.2C206.7,376.8 202.8,375.9 201.4,376.9C185.8,387.2 170.4,397.9 154.9,408.6C165.4,432.3 175.1,454.6 185.3,476.7C187.3,481 186.7,483.8 183.8,487.2C178.3,493.6 172.6,500.1 168.5,507.4C164.6,514.5 159.9,515.5 152.6,514.7C130.9,512.2 109.2,510.2 87.4,508.3C85.4,508.1 81.9,509.5 81.4,511C74.9,528.5 68.8,546.1 62.7,563.6C66,565.6 67.8,566.7 69.6,567.8C89.1,579 108.6,590.4 128.2,601.4C132,603.5 133.3,605.9 133.1,610.3C132.7,620.2 132.7,630.1 133.1,639.9C133.3,644.3 131.9,646.6 128.1,648.7C108.7,659.6 89.4,670.8 70.1,682C67.9,683.3 65.9,684.7 62.8,686.7C68.5,703.3 74.4,719.6 79.7,736.1C81.6,742.1 85,742.4 90.3,741.8L156.9,735.1C161.4,734.6 164.1,735.8 166.7,739.8C171.7,747.5 177,755 183,761.9C186.8,766.2 187.3,769.6 184.9,774.8C174.9,796.5 165.3,818.3 155,841.5C170.6,852.2 186,862.9 201.6,873.2C203,874.2 206.9,873.2 208.5,871.8C226.1,856.9 243.5,841.9 260.8,826.6C264.1,823.7 266.6,823.3 270.7,824.9C279.9,828.4 289.3,831.3 298.8,833.8C303.4,835 305.6,837 306.7,841.9C311.7,865.5 317.2,888.9 322.7,913.2L383.4,913.2C388.9,888.7 394.4,865.2 399.5,841.7C400.5,837.2 402.4,835.1 406.9,833.9C416.6,831.3 426.3,828.4 435.7,824.9C439.9,823.3 442.4,824 445.6,826.8C462.9,842 480.3,857.1 497.9,872C499.4,873.3 502.9,874.2 504.3,873.4C520.1,863 535.7,852.2 551.3,841.5C540.7,817.6 531,795.2 520.8,773.1C518.9,769 519.5,766.5 522.2,763.2C527.7,756.5 533.7,749.9 537.8,742.4C541.8,735.1 546.7,734.6 553.9,735.4C575.6,737.9 597.3,739.9 619.1,741.7C621.1,741.9 624.6,739.9 625.2,738.1C631.6,721 637.5,703.8 643.5,686.5C640.1,684.3 638,682.9 635.8,681.6C616.2,670.8 597,659.6 577.5,648.6ZM348.3,719.7C297.1,718.3 254.7,673.9 256.3,623C257.9,569.5 302,529.2 357.5,530.6C408.9,531.9 451,576.4 449.5,628C448,680.7 403.4,721.2 348.3,719.7ZM696.9,415.6C700.2,430.9 703.7,446.2 707.3,462L746.8,462C750.4,446 754,430.7 757.3,415.4C757.9,412.5 759.2,411.1 762.1,410.3C768.4,408.6 774.7,406.7 780.9,404.4C783.7,403.4 785.2,403.8 787.3,405.7C798.6,415.6 809.9,425.4 821.4,435.1C822.4,435.9 824.7,436.5 825.5,436C835.8,429.2 846,422.2 856.1,415.2C849.2,399.6 842.9,385.1 836.2,370.6C835,367.9 835.4,366.3 837.1,364.2C840.7,359.8 844.6,355.6 847.3,350.7C849.9,346 853.1,345.6 857.8,346.2C871.9,347.8 886.1,349.1 900.3,350.3C901.6,350.4 903.8,349.1 904.3,347.9C908.4,336.8 912.3,325.5 916.2,314.3C914,312.9 912.6,312 911.2,311.1C898.6,303.8 886,296.6 873.4,289.4C871.1,288.1 870.3,286.7 870.4,284C870.6,277.3 870.3,270.5 870.6,263.8C870.7,262.2 871.8,260.1 873.2,259.3C877.7,256.3 882.4,253.8 887,251.2C896.5,245.7 906,240.2 916.3,234.3C912.6,223.4 908.8,212.8 905.3,202.1C904,198.2 901.9,197.7 898.1,198.1C883.7,199.8 869.2,201 854.7,202.5C852,202.8 850.3,202 848.7,199.6C845,194.2 841,189 836.9,183.8C835.4,181.9 834.9,180.4 836.1,178.1C838.4,173.6 840.2,168.9 842.3,164.3C846.8,154.2 851.3,144 856.2,133.1C846.1,126.2 836.3,119.5 826.5,112.6C824.2,111 822.9,111.7 821,113.3L787,142.8C785,144.6 783.4,144.7 780.9,143.8C774.7,141.6 768.5,139.6 762.1,137.9C759.2,137.1 757.9,135.8 757.3,132.8C754,117.4 750.4,102.2 746.8,86.3L707.2,86.3C703.6,102.4 700,117.7 696.7,133.1C696.1,135.9 694.7,137.1 692.1,137.8C685.8,139.5 679.5,141.4 673.3,143.7C670.6,144.7 669,144.4 666.8,142.5C655.6,132.6 644.2,122.8 632.7,113.1C631.6,112.2 629.1,111.6 628.2,112.2C618,118.9 608,125.9 597.9,132.8C604.7,148.2 611.1,162.7 617.7,177.2C619,180 618.6,181.8 616.7,184.1C613.2,188.3 609.4,192.5 606.8,197.3C604.3,201.9 601.2,202.6 596.4,202C582.3,200.3 568.1,199.1 553.9,197.8C552.6,197.7 550.3,198.6 550,199.6C545.8,211 541.8,222.5 537.8,233.9C540,235.2 541.1,235.9 542.3,236.6C555,243.9 567.7,251.3 580.5,258.5C583,259.9 583.8,261.4 583.7,264.3C583.4,270.7 583.4,277.2 583.7,283.6C583.8,286.5 582.9,288 580.5,289.4C567.8,296.5 555.3,303.8 542.7,311.1C541.3,311.9 539.9,312.9 537.9,314.2C541.6,325 545.5,335.6 548.9,346.4C550.1,350.3 552.4,350.5 555.8,350.1C570.3,348.5 584.7,347.3 599.2,345.8C602.1,345.5 603.9,346.3 605.6,348.9C608.8,353.9 612.3,358.8 616.2,363.3C618.7,366.1 619,368.3 617.4,371.7C610.9,385.8 604.7,400.1 597.9,415.2C608.1,422.2 618.1,429.2 628.3,435.9C629.2,436.5 631.8,435.9 632.8,435C644.3,425.3 655.6,415.5 666.9,405.6C669,403.7 670.7,403.4 673.4,404.5C679.4,406.8 685.5,408.7 691.7,410.3C694.7,411.1 696.2,412.4 696.9,415.6ZM664.1,272.8C665.2,237.9 693.9,211.7 730,212.6C763.5,213.4 790.9,242.5 789.9,276C788.9,310.3 759.8,336.7 724,335.8C690.7,334.9 663.1,306 664.1,272.8ZM934,661.8C925.2,656.7 916.5,651.7 907.6,646.7C906,645.8 905.4,644.8 905.5,642.9C905.6,638.2 905.4,633.5 905.6,628.8C905.6,627.7 906.5,626.2 907.4,625.6C910.5,623.5 913.8,621.8 917,619.9C923.6,616.1 930.3,612.2 937.4,608.1C934.8,600.5 932.2,593.1 929.8,585.7C928.9,583 927.4,582.6 924.8,582.9C914.7,584.1 904.6,584.9 894.6,585.9C892.7,586.1 891.6,585.6 890.4,583.9C887.8,580.1 885,576.5 882.2,572.9C881.2,571.6 880.8,570.5 881.6,568.9C883.2,565.8 884.5,562.5 885.9,559.3C889,552.2 892.2,545.2 895.6,537.5C888.6,532.7 881.7,528 874.9,523.2C873.3,522.1 872.4,522.6 871.1,523.7L847.4,544.3C846,545.6 844.9,545.6 843.1,545C838.8,543.4 834.4,542.1 830,540.9C828,540.4 827.1,539.4 826.7,537.4C824.4,526.7 821.9,516 819.4,505L791.8,505C789.3,516.2 786.8,526.9 784.5,537.6C784.1,539.6 783.1,540.4 781.3,540.9C776.9,542.1 772.5,543.4 768.2,545C766.3,545.7 765.2,545.5 763.7,544.2C755.9,537.3 747.9,530.4 740,523.7C739.3,523.1 737.5,522.7 736.8,523.1C729.7,527.8 722.7,532.6 715.7,537.5C720.5,548.2 724.9,558.4 729.5,568.4C730.4,570.4 730.1,571.6 728.8,573.2C726.3,576.1 723.7,579 721.9,582.4C720.1,585.6 718,586.1 714.7,585.7C704.9,584.5 695,583.7 685.1,582.8C684.2,582.7 682.6,583.4 682.4,584C679.4,591.9 676.7,600 673.9,607.9C675.4,608.8 676.2,609.3 677,609.8C685.9,614.9 694.7,620.1 703.6,625.1C705.3,626.1 705.9,627.1 705.8,629.1C705.6,633.6 705.6,638.1 705.8,642.5C705.9,644.5 705.2,645.6 703.5,646.5C694.7,651.5 685.9,656.5 677.1,661.6C676.1,662.2 675.2,662.8 673.8,663.7C676.4,671.3 679.1,678.6 681.5,686.1C682.4,688.8 683.9,689 686.3,688.7C696.4,687.6 706.5,686.7 716.5,685.7C718.5,685.5 719.8,686 720.9,687.8C723.2,691.3 725.6,694.7 728.3,697.8C730,699.8 730.2,701.3 729.2,703.7C724.7,713.5 720.3,723.5 715.6,734C722.7,738.9 729.7,743.7 736.8,748.4C737.5,748.8 739.2,748.4 740,747.8C748,741 755.9,734.2 763.7,727.3C765.2,726 766.3,725.8 768.2,726.5C772.4,728.1 776.7,729.4 781,730.6C783.1,731.2 784.1,732 784.6,734.3C786.9,745 789.4,755.6 791.9,766.7L819.5,766.7C822,755.6 824.5,744.9 826.8,734.2C827.2,732.2 828.1,731.2 830.1,730.7C834.5,729.5 838.9,728.2 843.2,726.6C845.1,725.9 846.2,726.2 847.7,727.5C855.5,734.4 863.5,741.3 871.4,748C872.1,748.6 873.7,749 874.3,748.6C881.5,743.9 888.6,739 895.6,734.1C890.8,723.2 886.4,713.1 881.8,703C880.9,701.1 881.2,700 882.4,698.5C884.9,695.5 887.6,692.5 889.5,689.1C891.3,685.8 893.6,685.6 896.8,685.9C906.7,687 916.5,687.9 926.4,688.8C927.3,688.9 928.9,688 929.2,687.1C932.1,679.3 934.8,671.5 937.5,663.7C935.9,663 935,662.3 934,661.8ZM803.5,679C780.2,678.4 761,658.2 761.7,635.1C762.4,610.8 782.4,592.5 807.7,593.1C831,593.7 850.2,613.9 849.5,637.3C848.8,661.2 828.5,679.6 803.5,679Z" style="fill:rgb(127,127,127);fill-rule:nonzero;"/>
</svg>
