<?xml version="1.0" encoding="UTF-8" standalone="no"?>
<!DOCTYPE svg PUBLIC "-//W3C//DTD SVG 1.1//EN" "http://www.w3.org/Graphics/SVG/1.1/DTD/svg11.dtd">
<svg width="100%" height="100%" viewBox="0 0 1000 1000" version="1.1" xmlns="http://www.w3.org/2000/svg" xmlns:xlink="http://www.w3.org/1999/xlink" xml:space="preserve" xmlns:serif="http://www.serif.com/" style="fill-rule:evenodd;clip-rule:evenodd;stroke-linejoin:round;stroke-miterlimit:1.41421;">
    <path d="M403.086,704.485C384.028,715.697 369.439,715.834 356.451,705.401C342.629,694.3 339.907,680.819 347.222,657.454C332.155,664.906 317.691,665.792 304.455,654.814C291.66,644.206 288.652,630.314 293.38,613.417C278.001,618.093 264.575,617.696 253.13,607.319C238.911,594.412 237.068,573.809 248.688,558.277C255.907,548.638 263.222,539.068 270.659,529.592C282.487,514.527 300.506,509.96 316.393,517.835C332.047,525.587 339.032,541.652 334.902,560.313C334.713,561.162 334.876,562.093 334.876,563.761C351.037,558.248 365.913,559.713 377.381,572.919C388.456,585.662 388.922,600.304 380.966,616.985C398.97,607.593 414.598,608.55 427.653,621.812C440.834,635.196 440.451,650.973 431.728,668.406C448.738,659.53 464.007,659.312 477.695,671.646C491.202,683.812 493.185,704.485 482.493,719.197C477.283,726.375 471.663,733.264 466.194,740.264C454.466,755.276 436.622,759.803 420.519,751.873C404.672,744.065 397.672,727.072 402.567,708.312C402.8,707.425 402.826,706.495 403.086,704.485ZM493.238,256.415C442.283,279.684 393.324,302.187 344.215,324.31C338.35,326.946 335.384,330.283 334.205,336.571C332.155,347.524 330.256,358.42 330.871,369.603C332.744,403.728 357.667,428.488 392.845,431.565C417.809,433.752 441.326,428.462 464.228,418.974C491.776,407.543 518.464,394.336 544.933,380.677C549.363,378.394 551.959,378.586 555.611,382.005C618.186,440.508 680.941,498.844 743.574,557.306C755.031,567.999 757.489,579.018 752.05,592.374C746.129,606.896 733.538,616.095 719.675,616.492C714.862,616.629 711.429,615.083 708.011,611.665C687.352,591.049 666.463,570.65 645.655,550.184C643.164,547.737 640.609,545.357 638.147,542.883C634.881,539.614 631.136,537.823 627.321,541.393C623.027,545.412 625.037,549.32 628.619,552.835C650.809,574.628 672.684,596.778 695.352,618.064C702.338,624.615 703.936,630.903 702.093,639.761C697.896,659.778 686.395,671.343 669.061,672.232C661.705,672.615 655.84,670.675 650.386,665.177C627.361,641.978 603.926,619.158 580.63,596.218C578.825,594.439 577.008,592.648 575.024,591.076C572.166,588.806 569.01,588.833 566.385,591.268C563.416,594.016 563.308,597.475 565.674,600.686C567.164,602.71 569.144,604.379 570.95,606.155C591.746,626.636 612.198,647.499 633.542,667.379C641.566,674.843 642.633,682.418 639.912,691.935C636.917,702.406 630.109,709.406 619.664,711.144C605.13,713.562 591.542,711.649 580.207,700.177C557.005,676.704 533.257,653.776 509.729,630.629C506.459,627.418 502.796,623.929 498.324,628.045C493.716,632.297 495.781,636.55 499.759,640.254C501.62,641.978 503.356,643.836 505.176,645.615C525.56,665.629 545.645,685.958 566.508,705.468C572.522,711.103 573.111,715.834 570.334,722.819C561.777,744.38 543.758,751.736 522.62,741.851C519.187,740.238 515.947,738.199 512.625,736.341C504.505,731.803 502.084,727.168 506.514,717.009C519.447,687.382 500.074,651.095 467.892,643.276C460.932,641.581 458.552,638.682 456.762,632.146C450.718,610.066 436.062,596.259 413.627,591.335C408.992,590.323 406.942,588.588 405.766,583.857C399.997,560.806 385.189,546.52 362.112,541.063C357.912,540.066 356.069,538.479 354.756,534.092C348.287,512.477 333.645,498.873 311.581,494.498C288.282,489.89 269.143,497.847 254.527,516.481C246.118,527.215 237.683,537.934 229.808,549.061C227.21,552.727 225.459,553.491 221.548,551.359C211.815,546.054 201.986,540.9 191.976,536.154C187.082,533.833 186.781,531.041 188.368,526.34C211.678,456.966 234.933,387.581 257.808,318.074C259.941,311.593 262.962,310.651 268.717,311.607C289.854,315.122 309.653,310.677 328.629,301.285C363.288,284.112 398.369,267.913 433.533,251.792C454.425,242.193 472.526,247.417 493.238,256.415ZM588.313,244.314C613.02,244.424 631.967,250.684 648.717,263.29C659.614,271.48 670.278,279.97 681.011,288.364C701.682,304.54 725.17,312.975 751.394,313.057C757.382,313.072 759.417,315.148 760.718,320.643C775.935,384.752 791.273,448.832 806.927,512.844C808.488,519.203 806.749,520.789 800.954,522.046C786.406,525.191 771.942,528.787 757.6,532.791C752.595,534.186 749.521,533.147 745.843,529.729C684.222,472.582 622.397,415.666 560.902,358.394C555.789,353.622 552.289,353.211 546.327,356.384C514.43,373.362 482.122,389.524 448.434,402.731C431.946,409.197 414.965,412.111 397.22,410.824C365.79,408.555 348.657,387.774 351.883,356.341C352.84,347.031 356.191,341.562 365.393,337.446C427.586,309.694 489.437,281.146 551.426,252.927C564.306,247.076 577.787,243.876 588.313,244.314Z" style="fill:rgb(130,130,130);fill-rule:nonzero;"/>
    <path d="M148.007,260.612C152.437,261.992 157.579,263.508 162.678,265.206C185.81,272.888 208.931,280.586 232.037,288.338C244.068,292.372 246.515,296.992 242.496,309.079C219.238,379.05 195.913,448.998 172.536,518.928C168.707,530.385 163.949,532.669 152.259,528.813C126.12,520.174 100.004,511.435 73.92,502.592C62.764,498.803 60.439,494.28 64.117,483.19C87.524,412.63 111.038,342.11 134.514,271.561C136.565,265.384 140.146,261.035 148.007,260.612ZM776.18,310.076C775.742,300.822 780.199,296.581 786.939,294.927C814.598,288.16 842.283,281.542 870.039,275.172C880.305,272.821 885.392,276.607 888.14,287.982C899.815,336.286 911.409,384.615 923.017,432.947C927.596,452.02 932.219,471.077 936.688,490.176C939.205,500.935 935.979,506.5 925.342,509.125C898.914,515.647 872.445,521.979 845.961,528.227C833.466,531.167 828.461,527.967 825.428,515.443C809.293,448.654 793.216,381.853 777.125,315.067C776.605,312.92 776.302,310.718 776.18,310.076Z" style="fill:url(#_Linear1);fill-rule:nonzero;"/>
    <defs>
        <linearGradient id="_Linear1" x1="0" y1="0" x2="1" y2="0" gradientUnits="userSpaceOnUse" gradientTransform="matrix(1.7557e-14,286.728,-286.728,1.7557e-14,500,246.664)"><stop offset="0" style="stop-color:rgb(0,102,204);stop-opacity:1"/><stop offset="1" style="stop-color:rgb(51,51,153);stop-opacity:1"/></linearGradient>
    </defs>
</svg>
